<?xml version="1.0" encoding="UTF-8" standalone="no"?>
<!-- Created with Inkscape (http://www.inkscape.org/) -->

<svg
   xmlns:dc="http://purl.org/dc/elements/1.1/"
   xmlns:cc="http://creativecommons.org/ns#"
   xmlns:rdf="http://www.w3.org/1999/02/22-rdf-syntax-ns#"
   xmlns:svg="http://www.w3.org/2000/svg"
   xmlns="http://www.w3.org/2000/svg"
   xmlns:sodipodi="http://sodipodi.sourceforge.net/DTD/sodipodi-0.dtd"
   xmlns:inkscape="http://www.inkscape.org/namespaces/inkscape"
   width="619px"
   height="59px"
   viewBox="0 0 619 59"
   version="1.1"
   id="SVGRoot"
   inkscape:version="0.92.4 (5da689c313, 2019-01-14)"
   sodipodi:docname="produtivi-logo.svg">
  <defs
     id="defs925" />
  <sodipodi:namedview
     id="base"
     pagecolor="#ffffff"
     bordercolor="#666666"
     borderopacity="1.0"
     inkscape:pageopacity="0.0"
     inkscape:pageshadow="2"
     inkscape:zoom="0.82714055"
     inkscape:cx="309.5"
     inkscape:cy="29.5"
     inkscape:document-units="px"
     inkscape:current-layer="layer1"
     showgrid="false"
     inkscape:window-width="1366"
     inkscape:window-height="713"
     inkscape:window-x="0"
     inkscape:window-y="0"
     inkscape:window-maximized="1" />
  <metadata
     id="metadata928">
    <rdf:RDF>
      <cc:Work
         rdf:about="">
        <dc:format>image/svg+xml</dc:format>
        <dc:type
           rdf:resource="http://purl.org/dc/dcmitype/StillImage" />
        <dc:title></dc:title>
      </cc:Work>
    </rdf:RDF>
  </metadata>
  <g
     inkscape:label="Camada 1"
     inkscape:groupmode="layer"
     id="layer1">
    <g
       id="g1524"
       transform="matrix(1.9479287,0,0,1.9501609,-331.0642,-5.3972161)">
      <path
         inkscape:connector-curvature="0"
         id="path819"
         style="font-style:normal;font-weight:normal;font-size:10.58333302px;line-height:1.25;font-family:sans-serif;letter-spacing:0px;word-spacing:0px;fill:#000000;fill-opacity:1;stroke:none;stroke-width:0.99999994"
         d="M 173.90235,6.5371054 V 17.494138 h 4.96094 q 2.7539,0 4.25781,-1.425782 1.5039,-1.425781 1.5039,-4.062497 0,-2.6171907 -1.5039,-4.0429721 -1.50391,-1.4257815 -4.25781,-1.4257815 z m -3.94531,-3.2421845 h 8.90625 q 4.90234,0 7.40234,2.2265612 2.51953,2.2070325 2.51953,6.4843769 0,4.316406 -2.51953,6.523435 -2.5,2.207032 -7.40234,2.207032 h -4.96094 v 11.718762 h -3.94531 z" />
      <path
         inkscape:connector-curvature="0"
         id="path821"
         style="font-style:normal;font-weight:normal;font-size:10.58333302px;line-height:1.25;font-family:sans-serif;letter-spacing:0px;word-spacing:0px;fill:#000000;fill-opacity:1;stroke:none;stroke-width:0.99999994"
         d="m 207.92579,18.783202 q 1.26953,0.429687 2.46094,1.835936 1.21093,1.406249 2.42187,3.867186 l 4.0039,7.968764 h -4.23827 l -3.73047,-7.480479 q -1.44532,-2.92969 -2.81251,-3.886719 -1.34765,-0.957033 -3.6914,-0.957033 h -4.29688 v 12.324231 h -3.94531 V 3.2949209 h 8.90625 q 5,0 7.46094,2.0898444 2.46094,2.0898406 2.46094,6.3085907 0,2.753908 -1.28907,4.570315 -1.26953,1.816407 -3.71093,2.519531 z M 198.04297,6.5371054 V 16.888669 h 4.96094 q 2.85157,0 4.29688,-1.308594 1.46484,-1.328126 1.46484,-3.886719 0,-2.5585926 -1.46484,-3.8476534 -1.44531,-1.3085972 -4.29688,-1.3085972 z" />
      <path
         inkscape:connector-curvature="0"
         id="path823"
         style="font-style:normal;font-weight:normal;font-size:10.58333302px;line-height:1.25;font-family:sans-serif;letter-spacing:0px;word-spacing:0px;fill:#000000;fill-opacity:1;stroke:none;stroke-width:0.99999994"
         d="m 233.7461,5.9707017 q -4.29688,0 -6.83594,3.2031231 -2.51953,3.2031272 -2.51953,8.7304712 0,5.507811 2.51953,8.71093 2.53906,3.203112 6.83594,3.203112 4.29687,0 6.79688,-3.203112 2.51953,-3.203119 2.51953,-8.71093 0,-5.527344 -2.51953,-8.7304712 -2.50001,-3.2031231 -6.79688,-3.2031231 z m 0,-3.203127 q 6.13281,0 9.80469,4.1210948 3.67187,4.1015625 3.67187,11.0156265 0,6.894531 -3.67187,11.015611 -3.67188,4.101581 -9.80469,4.101581 -6.15235,0 -9.84375,-4.101581 -3.67188,-4.101551 -3.67188,-11.015611 0,-6.914064 3.67188,-11.0156265 3.6914,-4.1210948 9.84375,-4.1210948 z" />
      <path
         inkscape:connector-curvature="0"
         id="path825"
         style="font-style:normal;font-weight:normal;font-size:10.58333302px;line-height:1.25;font-family:sans-serif;letter-spacing:0px;word-spacing:0px;fill:#000000;fill-opacity:1;stroke:none;stroke-width:0.99999994"
         d="M 257.33985,6.5371054 V 29.212896 h 4.76562 q 6.03516,0 8.82814,-2.734375 2.81249,-2.734383 2.81249,-8.632819 0,-5.859376 -2.81249,-8.5742217 -2.79298,-2.7343749 -8.82814,-2.7343749 z m -3.94531,-3.2421845 h 8.10547 q 8.47656,0 12.44141,3.5351546 3.96484,3.5156255 3.96484,11.0156265 0,7.539061 -3.98437,11.074205 -3.98438,3.535181 -12.42188,3.535181 h -8.10547 z" />
      <path
         inkscape:connector-curvature="0"
         id="path827"
         style="font-style:normal;font-weight:normal;font-size:10.58333302px;line-height:1.25;font-family:sans-serif;letter-spacing:0px;word-spacing:0px;fill:#000000;fill-opacity:1;stroke:none;stroke-width:0.99999994"
         d="m 283.72657,3.2949209 h 3.96484 V 21.009764 q 0,4.687491 1.69922,6.757802 1.69922,2.050772 5.50781,2.050772 3.78906,0 5.48828,-2.050772 1.69922,-2.070311 1.69922,-6.757802 V 3.2949209 h 3.96484 V 21.498044 q 0,5.703122 -2.83203,8.613283 -2.8125,2.910161 -8.32031,2.910161 -5.52734,0 -8.35938,-2.910161 -2.81249,-2.910161 -2.81249,-8.613283 z" />
      <path
         inkscape:connector-curvature="0"
         id="path829"
         style="font-style:normal;font-weight:normal;font-size:10.58333302px;line-height:1.25;font-family:sans-serif;letter-spacing:0px;word-spacing:0px;fill:#000000;fill-opacity:1;stroke:none;stroke-width:0.99999994"
         d="m 309.42969,3.2949209 h 24.66797 V 6.6152321 H 323.7461 V 32.455088 h -3.96485 V 6.6152321 h -10.35156 z" />
      <path
         inkscape:connector-curvature="0"
         id="path831"
         style="font-style:normal;font-weight:normal;font-size:10.58333302px;line-height:1.25;font-family:sans-serif;letter-spacing:0px;word-spacing:0px;fill:#000000;fill-opacity:1;stroke:none;stroke-width:0.99999994"
         d="m 337.92579,3.2949209 h 3.94531 V 32.455088 h -3.94531 z" />
      <path
         inkscape:connector-curvature="0"
         id="path833"
         style="font-style:normal;font-weight:normal;font-size:10.58333302px;line-height:1.25;font-family:sans-serif;letter-spacing:0px;word-spacing:0px;fill:#000000;fill-opacity:1;stroke:none;stroke-width:0.99999994"
         d="M 357.2422,32.455088 346.10939,3.2949209 h 4.12109 l 9.23828,24.5507681 9.25781,-24.5507681 h 4.10157 L 361.71486,32.455088 Z" />
      <path
         inkscape:connector-curvature="0"
         id="path835"
         style="font-style:normal;font-weight:normal;font-size:10.58333302px;line-height:1.25;font-family:sans-serif;letter-spacing:0px;word-spacing:0px;fill:#000000;fill-opacity:1;stroke:none;stroke-width:0.99999994"
         d="m 377.06641,3.2949209 h 3.94532 V 32.455088 h -3.94532 z" />
      <path
         inkscape:connector-curvature="0"
         id="path837"
         style="font-style:normal;font-weight:normal;font-size:10.58333302px;line-height:1.25;font-family:sans-serif;letter-spacing:0px;word-spacing:0px;fill:#000000;fill-opacity:1;stroke:none;stroke-width:0.99999994"
         d="m 389.21484,27.494155 h 4.1211 v 4.960933 h -4.1211 z" />
      <path
         inkscape:connector-curvature="0"
         id="path839"
         style="font-style:normal;font-weight:normal;font-size:10.58333302px;line-height:1.25;font-family:sans-serif;letter-spacing:0px;word-spacing:0px;fill:#000000;fill-opacity:1;stroke:none;stroke-width:0.99999994"
         d="M 423.4336,5.5410147 V 9.701171 q -1.99219,-1.8554684 -4.25782,-2.77344 -2.24609,-0.9179679 -4.78515,-0.9179679 -5,0 -7.65625,3.0664063 -2.65625,3.0468736 -2.65625,8.8281266 0,5.761716 2.65625,8.828133 2.65625,3.046867 7.65625,3.046867 2.53906,0 4.78515,-0.917972 2.26563,-0.917972 4.25782,-2.773417 v 4.121083 q -2.07032,1.406249 -4.39453,2.109354 -2.30469,0.703144 -4.88282,0.703144 -6.62109,0 -10.42968,-4.042961 -3.8086,-4.062512 -3.8086,-11.074231 0,-7.031252 3.8086,-11.0742205 3.80859,-4.0625008 10.42968,-4.0625008 2.61719,0 4.92188,0.7031245 2.32422,0.6835955 4.35547,2.0703155 z" />
      <path
         inkscape:connector-curvature="0"
         id="path841"
         style="font-style:normal;font-weight:normal;font-size:10.58333302px;line-height:1.25;font-family:sans-serif;letter-spacing:0px;word-spacing:0px;fill:#000000;fill-opacity:1;stroke:none;stroke-width:0.99999994"
         d="m 441.40234,5.9707017 q -4.29688,0 -6.83594,3.2031231 -2.51953,3.2031272 -2.51953,8.7304712 0,5.507811 2.51953,8.71093 2.53906,3.203112 6.83594,3.203112 4.29687,0 6.79688,-3.203112 2.51951,-3.203119 2.51951,-8.71093 0,-5.527344 -2.51951,-8.7304712 -2.50001,-3.2031231 -6.79688,-3.2031231 z m 0,-3.203127 q 6.13282,0 9.80467,4.1210948 3.67188,4.1015625 3.67188,11.0156265 0,6.894531 -3.67188,11.015611 -3.67185,4.101581 -9.80467,4.101581 -6.15235,0 -9.84375,-4.101581 -3.67188,-4.101551 -3.67188,-11.015611 0,-6.914064 3.67188,-11.0156265 3.6914,-4.1210948 9.84375,-4.1210948 z" />
      <path
         inkscape:connector-curvature="0"
         id="path843"
         style="font-style:normal;font-weight:normal;font-size:10.58333302px;line-height:1.25;font-family:sans-serif;letter-spacing:0px;word-spacing:0px;fill:#000000;fill-opacity:1;stroke:none;stroke-width:0.99999994"
         d="m 461.05079,3.2949209 h 5.8789 l 7.4414,19.8437481 7.48048,-19.8437481 h 5.8789 V 32.455088 h -3.84763 V 6.8496081 l -7.51956,19.9999869 h -3.96484 L 464.87892,6.8496081 V 32.455088 h -3.82813 z" />
    </g>
  </g>
</svg>
